<svg id="Layer_1" enable-background="new 0 0 450 450" viewBox="0 0 450 450" xmlns="http://www.w3.org/2000/svg"><g><g><g><path d="m245.9 423.8h-230.4c-6.2 0-11.2-5-11.2-11.2v-90.6c0-53.5 43.5-97 97-97 2.8 0 5 2.2 5 5s-2.2 5-5 5c-48 0-87 39-87 87v90.6c0 .7.6 1.2 1.2 1.2h230.4c.7 0 1.2-.6 1.2-1.2v-90.6c0-48-39-87-87-87-2.8 0-5-2.2-5-5s2.2-5 5-5c53.5 0 97 43.5 97 97v90.6c0 6.2-5.1 11.2-11.2 11.2z"/></g><g><path d="m130.7 280.6c-18 0-32.7-14.7-32.7-32.7v-35.4c0-2.8 2.2-5 5-5s5 2.2 5 5v35.4c0 12.5 10.2 22.7 22.7 22.7s22.7-10.2 22.7-22.7v-35.4c0-2.8 2.2-5 5-5s5 2.2 5 5v35.4c0 18.1-14.7 32.7-32.7 32.7z"/></g><g><path d="m130.7 223.2c-41.7 0-75.6-33.9-75.6-75.6v-40.1c0-16.4 5.2-32 15.1-45.2 1.7-2.2 4.8-2.7 7-1s2.7 4.8 1 7c-8.6 11.4-13.1 25-13.1 39.2v40.1c0 36.1 29.4 65.6 65.6 65.6s65.6-29.4 65.6-65.6v-40.1c0-6.4-.9-12.8-2.8-19-.8-2.6.7-5.4 3.3-6.2s5.4.7 6.2 3.3c2.2 7.1 3.3 14.4 3.3 21.9v40.1c-.1 41.7-34 75.6-75.6 75.6z"/></g><g><path d="m128.4 98.8c-16.1 0-34.1-3-46.8-13.9-11.8-10.3-16.8-25.6-14.8-45.5.2-1.9 1.4-3.5 3.2-4.2s3.8-.3 5.2 1.1c.7.7 4 2.8 16.3.6 8.3-1.5 17.3-4.3 22.6-5.9 1.1-.3 2-.6 2.8-.9 20.3-6.1 45.7-.2 64.8 15.2 14.8 11.9 22.6 27.3 21.4 42.3-.1 1.5-.9 2.8-2.1 3.7s-2.7 1.2-4.1.8c-10.8-2.7-22.5-.2-32.6 2.4-2.8.6-18.1 4.3-35.9 4.3zm-52-51.5c-.1 13.1 3.9 23.2 11.8 30 18.6 16 55.1 12.2 73.8 7.4 10.1-2.6 20.7-4.7 31.1-3.6-1.2-9.8-7.4-19.8-17.6-28.1-16.3-13.1-38.6-18.5-55.6-13.4-.8.2-1.7.5-2.7.8-15.4 4.9-30.6 8.8-40.8 6.9z"/></g><g><path d="m59.1 423.8c-2.8 0-5-2.2-5-5v-97.9c0-2.8 2.2-5 5-5s5 2.2 5 5v97.9c0 2.8-2.3 5-5 5z"/></g><g><path d="m202.3 423.8c-2.8 0-5-2.2-5-5v-97.9c0-2.8 2.2-5 5-5s5 2.2 5 5v97.9c0 2.8-2.3 5-5 5z"/></g><g><path d="m59.1 352.2h-49.8c-2.8 0-5-2.2-5-5s2.2-5 5-5h49.8c2.8 0 5 2.2 5 5s-2.3 5-5 5z"/></g><g><path d="m252.1 352.2h-49.8c-2.8 0-5-2.2-5-5s2.2-5 5-5h49.8c2.8 0 5 2.2 5 5s-2.2 5-5 5z"/></g></g><g><path d="m435 423.8h-176.7c-6.2 0-11.2-5-11.2-11.2v-242.6c0-6.2 5-11.2 11.2-11.2h176.7c6.2 0 11.2 5 11.2 11.2v242.6c.1 6.2-5 11.2-11.2 11.2zm-176.7-255c-.7 0-1.2.6-1.2 1.2v242.6c0 .7.6 1.2 1.2 1.2h176.7c.7 0 1.2-.6 1.2-1.2v-242.6c0-.7-.6-1.2-1.2-1.2z"/></g><g><g><g><path d="m332.5 292c-10.2 0-19.3-5.2-25.9-15-13.5-20.1-13.9-54.1-.8-68.5 4.4-4.9 14.2-11.7 30.5-3 1 .5 2 1.2 3.1 1.9 1.7 1.1 5.2 3.3 6.4 3 1.3-.3 2.6 0 3.6.7.4-.9 1.1-1.6 2-2.1s1.7-1.1 2.6-1.6c1.1-.7 2.1-1.3 3.1-1.9 16.4-8.7 26.2-1.8 30.5 3 13.1 14.5 12.6 48.4-.8 68.5-9.1 13.5-22.8 18.2-37.6 12.9-.3-.1-.7-.3-1-.5-.3-.1-.9-.5-1.5-.6-.6.2-1.3.5-1.6.7s-.6.3-.9.4c-4 1.4-7.9 2.1-11.7 2.1zm-11-80.8c-4.9 0-7.3 2.7-8.4 3.9-9.8 10.9-8.9 40.3 1.7 56.2 6.5 9.7 15.1 12.8 25.5 9.2 1-.6 3.2-1.6 5.7-1.9h1.1c2.5.3 4.7 1.3 5.7 1.9 10.4 3.6 19 .5 25.5-9.2 10.7-15.9 11.6-45.4 1.7-56.3-1.6-1.8-6.5-7.2-18.4-.9-.7.4-1.5.9-2.5 1.5-.9.6-1.9 1.2-3 1.8-1.7.9-3.7.8-5.2-.1-.7 1.4-1.9 2.4-3.5 2.7-5.1 1-9.8-2-13.6-4.4-.9-.6-1.8-1.1-2.5-1.5-3.9-2.1-7.2-2.9-9.8-2.9z"/></g><g><path d="m363.1 236.3c-3.7 0-7.4-1-10.7-2.9-6.5-3.8-10.5-10.5-10.7-18.1 0-1.9 1-3.6 2.6-4.5 6.6-3.6 14.5-3.6 21 .2s10.5 10.5 10.7 18.1c0 1.9-1 3.6-2.6 4.5-3.2 1.8-6.8 2.7-10.3 2.7zm-10.9-17.9c.9 2.6 2.7 4.9 5.1 6.3 2.5 1.4 5.3 1.9 8.1 1.3-.9-2.6-2.7-4.9-5.1-6.3-2.5-1.4-5.3-1.9-8.1-1.3z"/></g><g><path d="m346.7 220.2c-2.8 0-5-2.2-5-5v-26.2c0-2.8 2.2-5 5-5s5 2.2 5 5v26.2c0 2.8-2.3 5-5 5z"/></g></g><g><path d="m412 398.5h-130.7c-2.8 0-5-2.2-5-5s2.2-5 5-5h130.7c2.8 0 5 2.2 5 5s-2.2 5-5 5z"/></g><g><path d="m412 372.4h-130.7c-2.8 0-5-2.2-5-5s2.2-5 5-5h130.7c2.8 0 5 2.2 5 5s-2.2 5-5 5z"/></g><g><path d="m412 346.2h-130.7c-2.8 0-5-2.2-5-5s2.2-5 5-5h130.7c2.8 0 5 2.2 5 5s-2.2 5-5 5z"/></g><g><path d="m412 320.1h-130.7c-2.8 0-5-2.2-5-5s2.2-5 5-5h130.7c2.8 0 5 2.2 5 5s-2.2 5-5 5z"/></g></g></g></svg>