<svg viewBox="0 0 64 64" xmlns="http://www.w3.org/2000/svg" version="1.1" xmlns:xlink="http://www.w3.org/1999/xlink" xmlns:svgjs="http://svgjs.dev/svgjs">
  <g transform="matrix(1,0,0,1,0,0)">
    <g id="_x30_6_recipe_book">
      <g>
        <path d="m56 18c-1.104 0-2 .896-2 2v38c0 1.103-.897 2-2 2h-38c-1.103 0-2-.897-2-2v-4c1.104 0 2-.896 2-2s-.896-2-2-2h-1.995c-.002 0-.003 0-.005 0s-.003 0-.005 0h-1.995c-1.104 0-2 .896-2 2s.896 2 2 2v4c0 3.309 2.691 6 6 6h38c3.309 0 6-2.691 6-6v-38c0-1.104-.896-2-2-2z" fill="#c11387ff" data-original-color="#000000ff" stroke="none" />
        <path d="m52 0h-38c-3.309 0-6 2.691-6 6v4c-1.104 0-2 .896-2 2s.896 2 2 2h4c1.104 0 2-.896 2-2s-.896-2-2-2v-4c0-1.103.897-2 2-2h38c1.103 0 2 .897 2 2v2c0 1.104.896 2 2 2s2-.896 2-2v-2c0-3.309-2.691-6-6-6z" fill="#c11387ff" data-original-color="#000000ff" stroke="none" />
        <path d="m8 22h4c1.104 0 2-.896 2-2s-.896-2-2-2h-4c-1.104 0-2 .896-2 2s.896 2 2 2z" fill="#c11387ff" data-original-color="#000000ff" stroke="none" />
        <path d="m8 30h4c1.104 0 2-.896 2-2s-.896-2-2-2h-4c-1.104 0-2 .896-2 2s.896 2 2 2z" fill="#c11387ff" data-original-color="#000000ff" stroke="none" />
        <path d="m8 38h4c1.104 0 2-.896 2-2s-.896-2-2-2h-4c-1.104 0-2 .896-2 2s.896 2 2 2z" fill="#c11387ff" data-original-color="#000000ff" stroke="none" />
        <path d="m8 46h4c1.104 0 2-.896 2-2s-.896-2-2-2h-4c-1.104 0-2 .896-2 2s.896 2 2 2z" fill="#c11387ff" data-original-color="#000000ff" stroke="none" />
        <path d="m24 52c0 1.104.896 2 2 2h16c1.104 0 2-.896 2-2v-10.343c2.328-.825 4-3.05 4-5.657 0-3.393-2.865-6.137-6.252-5.995-.889-3.449-4.025-6.005-7.748-6.005s-6.859 2.556-7.748 6.005c-3.402-.138-6.252 2.602-6.252 5.995 0 2.607 1.672 4.832 4 5.657zm4-2v-2h12v2zm-2-16c.344 0 .683.098 1.009.291.646.383 1.454.372 2.09-.031.635-.402.991-1.127.921-1.875-.012-.128-.02-.256-.02-.385 0-2.206 1.794-4 4-4s4 1.794 4 4c0 .126-.008.25-.02.374-.074.75.279 1.478.915 1.883.635.404 1.444.419 2.094.035.327-.194.667-.292 1.011-.292 1.103 0 2 .897 2 2s-.897 2-2 2c-1.104 0-2 .896-2 2v4h-12v-4c0-1.104-.896-2-2-2-1.103 0-2-.897-2-2s.897-2 2-2z" fill="#c11387ff" data-original-color="#000000ff" stroke="none" />
        <path d="m50 18v-8c0-1.104-.896-2-2-2h-28c-1.104 0-2 .896-2 2v8c0 1.104.896 2 2 2h28c1.104 0 2-.896 2-2zm-4-2h-24v-4h24z" fill="#c11387ff" data-original-color="#000000ff" stroke="none" />
        <path d="m54.58 12.59c-.37.37-.58.89-.58 1.41 0 .53.21 1.04.59 1.41.37.38.88.59 1.41.59s1.04-.21 1.41-.59c.38-.37.59-.88.59-1.41 0-.52-.21-1.04-.59-1.41-.74-.75-2.08-.75-2.83 0z" fill="#c11387ff" data-original-color="#000000ff" stroke="none" />
      </g>
    </g>
  </g>
</svg>

