<svg class="h-6 w-6" xmlns="http://www.w3.org/2000/svg" xmlns:xlink="http://www.w3.org/1999/xlink" version="1.1" width="512" height="512" x="0" y="0" viewBox="0 0 128 128" style="enable-background: new 0 0 512 512" xml:space="preserve">
  <g>
    <g fill="#e6e7e8">
      <path d="M70.276 29.319c.528.216 1.358.35 2.334.35 2.145 0 4.991-.651 6.867-2.522 1.177-1.174 1.837-2.909 2.476-4.586.542-1.424 1.054-2.77 1.772-3.465a6.296 6.296 0 0 1 2.934-1.607 11.573 11.573 0 0 0-.149 1.767c0 6.394 5.202 11.595 11.596 11.595s11.595-5.202 11.595-11.595S104.5 7.66 98.106 7.66c-2.388 0-4.608.726-6.455 1.968-2.88-2-7.397-3.365-10.954-1.15-4.151 2.589-5.004 7.519-5.755 11.869l-.193 1.104c-.606 3.375-2.606 4.355-3.93 5.003-.75.368-1.526.749-1.516 1.64.005.311.136.883.973 1.225z" fill="#e6e7e8" opacity="1" data-original="#e6e7e8" />
      <path d="m117.864 69.53-21.702-6.358-2.06-13.513c2.925-4.751 2.352-11.068-1.752-15.193-4.37-4.393-11.294-4.79-16.139-1.183l-13.286-4.578a5.436 5.436 0 0 0-4.73.566L39.886 41.014c-2.479 1.589-3.249 4.929-1.718 7.443a5.42 5.42 0 0 0 3.437 2.483 5.427 5.427 0 0 0 4.181-.722l16.103-10.313 5.45 1.878-9.269 9.06c-3.135 3.065-4.643 7.168-4.542 11.242L41.574 73.952l-22.457-5.905c-3.691-1.077-7.555 1.046-8.631 4.729s1.045 7.554 4.745 8.635l26.578 7.222a6.692 6.692 0 0 0 6.446-1.703l12.099-12.011 14.174 14.539v28.188c0 3.867 3.146 7.014 7.014 7.014s7.014-3.146 7.014-7.014V87.074a7.499 7.499 0 0 0-1.975-5.079L74.922 69.26l9.649-9.61 1.324 8.682a5.482 5.482 0 0 0 3.876 4.424L114.8 80.03a5.429 5.429 0 0 0 4.186-.473 5.427 5.427 0 0 0 2.607-3.307c.802-2.869-.872-5.884-3.729-6.72zM13.249 45.873h17.729a1 1 0 1 0 0-2H13.249a1 1 0 1 0 0 2zM13.677 30.965h31.41a1 1 0 1 0 0-2h-31.41a1 1 0 1 0 0 2z" fill="#e6e7e8" opacity="1" data-original="#e6e7e8" />
      <path d="M13.249 60.782h28.15a1 1 0 1 0 0-2h-28.15a1 1 0 1 0 0 2z" fill="#e6e7e8" opacity="1" data-original="#e6e7e8" />
    </g>
    <g fill="#fa759e">
      <path d="M87.647 6.87c-2.423-1.911-6.928-3.72-10.42-1.543-4.113 2.565-4.705 7.913-5.493 12.301-.988 5.499-5.441 5.576-5.43 6.455.009.751 5.558 1.257 8.467-1.644 2.005-2 2.461-6.32 4.259-8.062 1.54-1.492 3.355-1.979 4.91-2.087a10.589 10.589 0 0 1 3.707-5.42zM54.526 67.611a14.118 14.118 0 0 1-3.994-9.114l-12.66 12.567-23.037-6.058a5.958 5.958 0 1 0-3.342 11.439l26.577 7.221a5.67 5.67 0 0 0 5.48-1.447l12.815-12.722zM113.583 66.489l-22.314-6.537-2.209-14.494a11.35 11.35 0 0 1-1.455 1.773l-6.343 6.318 1.62 10.632a4.464 4.464 0 0 0 3.167 3.614l25.03 7.273a4.469 4.469 0 0 0 2.504-8.579z" fill="#9ec151" opacity="1" data-original="#fa759e" />
      <circle cx="94.106" cy="15.255" r="10.595" fill="#9ec151" opacity="1" data-original="#fa759e" />
    </g>
    <path fill="#ffffff" d="M94.106 7.66c5.341 0 9.746 3.956 10.477 9.095.07-.491.118-.989.118-1.5 0-5.851-4.744-10.595-10.595-10.595S83.511 9.404 83.511 15.255c0 .511.048 1.009.118 1.5.731-5.139 5.136-9.095 10.477-9.095z" opacity="1" data-original="#ffffff" />
    <path fill="#9ec151" d="M87.641 31.171c-4.161-4.182-10.773-4.445-15.25-.769L58.599 25.65a4.464 4.464 0 0 0-3.864.463L36.427 37.856a4.467 4.467 0 0 0 4.82 7.521l16.51-10.573 7.439 2.563-10.428 10.192c-5.599 5.473-5.707 14.446-.242 20.052l17.003 17.441v28.595a6.014 6.014 0 1 0 12.028 0V83.074c0-1.63-.611-3.201-1.712-4.404L69.536 65.229l18.068-17.997c4.444-4.426 4.461-11.615.037-16.061z" opacity="1" data-original="#fa759e" />
    <g fill="#3a2c60">
      <path d="M66.276 25.319c.528.216 1.359.35 2.334.35 2.145 0 4.991-.651 6.867-2.522 1.178-1.174 1.838-2.909 2.477-4.586.542-1.424 1.054-2.769 1.772-3.465a6.288 6.288 0 0 1 2.935-1.606 11.546 11.546 0 0 0-.149 1.765c0 6.394 5.201 11.595 11.595 11.595S105.7 21.649 105.7 15.255 100.499 3.66 94.106 3.66c-2.387 0-4.608.726-6.454 1.968-2.881-2.001-7.399-3.366-10.954-1.15-4.152 2.589-5.003 7.519-5.755 11.868l-.193 1.104c-.606 3.375-2.606 4.355-3.93 5.003-.75.368-1.526.748-1.516 1.64.004.312.135.884.972 1.226zM103.7 15.255c0 5.291-4.304 9.595-9.595 9.595s-9.595-4.304-9.595-9.595 4.304-9.595 9.595-9.595 9.595 4.305 9.595 9.595zm-30.982 2.55.195-1.118c.68-3.936 1.451-8.396 4.843-10.511.95-.592 2.014-.837 3.096-.837 1.833 0 3.706.708 5.172 1.619a11.615 11.615 0 0 0-2.831 4.417c-1.574.211-3.335.808-4.86 2.285-1.038 1.005-1.626 2.552-2.25 4.19-.563 1.48-1.146 3.011-2.019 3.882-1.43 1.426-3.664 1.887-5.257 1.933 1.445-.865 3.302-2.468 3.911-5.86z" fill="#3a2c60" opacity="1" data-original="#3a2c60" />
      <path d="m113.864 65.529-21.703-6.358-2.059-13.513c2.925-4.752 2.352-11.068-1.752-15.192-4.37-4.393-11.292-4.789-16.135-1.182l-13.29-4.58a5.441 5.441 0 0 0-4.73.566L35.887 37.014c-2.478 1.589-3.249 4.929-1.718 7.443a5.422 5.422 0 0 0 3.438 2.483 5.424 5.424 0 0 0 4.179-.722l16.103-10.313 5.45 1.878-9.269 9.06c-3.135 3.065-4.642 7.168-4.542 11.242L37.574 69.952l-22.458-5.905c-3.685-1.075-7.555 1.046-8.631 4.729s1.045 7.554 4.747 8.635l26.577 7.222a6.69 6.69 0 0 0 6.446-1.703l12.099-12.011 14.174 14.539v6.036a1 1 0 0 0 2 0v-6.442a1 1 0 0 0-.284-.698l-17.002-17.44c-5.07-5.2-4.969-13.562.225-18.638l9.987-9.762 6.704 2.31a1 1 0 1 0 .651-1.891l-14.728-5.075a1.001 1.001 0 0 0-.865.103L40.708 44.534a3.435 3.435 0 0 1-2.65.458 3.437 3.437 0 0 1-2.18-1.575 3.486 3.486 0 0 1 1.09-4.72l18.308-11.743a3.445 3.445 0 0 1 2.999-.359l20.238 6.974a1 1 0 0 0 .651-1.891l-4.535-1.563c3.941-2.148 8.994-1.566 12.304 1.761 4.027 4.046 4.012 10.617-.033 14.646L68.831 64.52a1 1 0 0 0-.032 1.384l12.308 13.441a5.507 5.507 0 0 1 1.449 3.729v30.573c0 2.765-2.249 5.014-5.014 5.014s-5.014-2.249-5.014-5.014v-7.32a1 1 0 0 0-2 0v7.32c0 3.867 3.146 7.014 7.014 7.014s7.014-3.146 7.014-7.014V83.074a7.503 7.503 0 0 0-1.974-5.079L70.922 65.26l9.649-9.61 1.323 8.683a5.483 5.483 0 0 0 3.877 4.423l25.03 7.273a5.422 5.422 0 0 0 4.185-.473 5.429 5.429 0 0 0 2.608-3.307c.8-2.868-.873-5.883-3.73-6.72zm-60.054 2.78 1.148 1.178L42.846 81.51a4.688 4.688 0 0 1-4.513 1.192l-26.559-7.217a4.963 4.963 0 0 1-3.369-6.149c.767-2.625 3.523-4.138 6.176-3.362l23.037 6.058c.341.09.707-.008.959-.258l11.22-11.138a15.091 15.091 0 0 0 4.013 7.673zm61.858 3.402a3.446 3.446 0 0 1-1.654 2.098 3.438 3.438 0 0 1-2.655.3L86.33 66.836a3.476 3.476 0 0 1-2.458-2.804l-1.544-10.131 5.984-5.96c.035-.035.064-.074.099-.109l1.87 12.272a1 1 0 0 0 .708.809l22.314 6.537a3.48 3.48 0 0 1 2.365 4.261z" fill="#3a2c60" opacity="1" data-original="#3a2c60" />
      <path d="M71.529 103.327a1 1 0 0 0 1-1v-7a1 1 0 0 0-2 0v7a1 1 0 0 0 1 1zM9.249 41.873h17.729a1 1 0 0 0 0-2H9.249a1 1 0 0 0 0 2zM9.676 26.965h31.41a1 1 0 0 0 0-2H9.676a1 1 0 0 0 0 2zM9.249 56.782h28.149a1 1 0 0 0 0-2H9.249a1 1 0 0 0 0 2z" fill="#3a2c60" opacity="1" data-original="#3a2c60" />
    </g>
  </g>
</svg>

