<svg id="fi_765618" version="1.1" xmlns="http://www.w3.org/2000/svg" xmlns:xlink="http://www.w3.org/1999/xlink" x="0px" y="0px" viewBox="0 0 511.997 511.997" style="enable-background: new 0 0 511.997 511.997" xml:space="preserve">
  <path style="fill: #3bbc56" d="M457.471,125.786c-3.52-1.514-5.908-4.819-6.232-8.626c-2.667-31.349-28.17-56.624-60.217-58.196 c-5.033-0.246-9.418-3.676-11.17-8.739c-16.757-48.401-82.723-52.509-106.55-8.927l-0.573,1.048l1.133,0.38 c22.899,7.673,41.328,28.944,43.326,56.168c42.091,12.677,76.34,37.268,101.373,69.842l1.236,1.608l0.523-1.959 c3.593-13.459,13.621-36.424,40.403-39.003l3.415-0.373C460.048,126.983,458.907,126.401,457.471,125.786z" />
  <g>
    <path style="fill: #30aa44" d="M364.958,26.854C338.788,2.059,292.446,6.28,273.301,41.298l-0.573,1.048l1.133,0.38 c7.039,2.359,13.652,6.006,19.499,10.713C308.258,26.319,339.498,17.733,364.958,26.854z" />
    <polygon style="fill: #30aa44" points="70.171,308.343 70.236,308.353 70.51,306.373" />
    <path style="fill: #30aa44" d="M65.358,307.797l0.036,0.001c0.046-1.199,0.039-0.771,0.035-2L65.358,307.797z" />
    <path style="fill: #30aa44" d="M257.57,37.583c-18.719-1.014-36.99,6.017-50.138,19.309c-4.255,4.301-10.397,5.655-15.648,3.45 c-33.126-13.917-71.044-0.667-88.846,29.613c-2.192,3.728-6.262,5.928-10.579,5.758c-67.159-2.74-108.402,73.149-69.636,127.946 c4.812,6.801,5.741,15.62,2.422,23.015c-9.863,21.99-5.149,49.436,16.157,66.995c7.35-3.921,12.998-5.415,20.018-5.904 C51.534,188.125,145.53,90.631,260.186,90.631c21.327,0,40.234,3.213,59.05,8.88C316.558,63.171,288.562,39.272,257.57,37.583z" />
  </g>
  <path style="fill: #239b31" d="M45.144,245.523c3.319-7.522,2.391-16.493-2.422-23.411C9.774,174.739,34.628,111.881,84.06,95.787 c-62.171,3.523-98.476,75.372-61.335,127.871c4.812,6.801,5.741,15.62,2.422,23.015c-9.863,21.99-5.149,49.436,16.157,66.995 c5.329-2.843,9.765-4.405,14.477-5.239C39.244,290.655,36.199,265.807,45.144,245.523z" />
  <path style="fill: #83cc8e" d="M420.141,167.512c-18.439-23.992-42.425-43.849-69.363-57.424 c-28.252-14.237-58.731-21.456-90.593-21.456c-115.299,0-210.783,97.971-200.859,219.272l0.985-0.069 c27.226-1.905,46.317,24.577,46.506,24.845l0.271,0.384l0.468,0.036c22.852,1.745,40.945,14.742,53.776,38.63 c9.621,17.909,12.488,35.551,12.516,35.726l0.125,0.791l0.799,0.051c39.326,2.524,68.38,42.221,84.857,78.235 c14.578-51.198,47.78-94.299,100.106-103.021l0.957-0.16l-0.131-0.962c-0.11-0.811-10.512-81.446,35.459-110.481l0.678-0.428 l-0.271-0.755c-0.233-0.649-22.747-65.228,21.895-94.185l0.394-0.256l0.055-0.466c0.003-0.03,0.365-3.036,1.542-7.441l0.127-0.476 L420.141,167.512z" />
  <path style="fill: #78c181" d="M278.333,89.429c-5.995-0.528-12.045-0.798-18.147-0.798c-115.298,0-210.782,97.971-200.859,219.272 l0.985-0.069c7.417-0.519,14.225,1.077,20.217,3.668C73.742,191.969,165.387,95.521,278.333,89.429z" />
  <path style="fill: #3bbc56" d="M240.792,449.605c-17.521-24.165-37.76-38.715-58.914-42.462c-3.668-0.65-6.646-3.323-7.552-6.937 c-8.12-32.413-27.643-62.876-60.9-68.411c-3.312-0.551-6.348-2.198-8.579-4.707c-19.571-22.024-45.838-29.226-71.311-10.86 c-42.422,30.585-5.96,68.992,33.198,61.114c11.432-2.307,17.978,10.964,27.046,29.323c9.999,20.244,22.441,45.438,47.434,63.889 c21.678,16.002,48.756,23.925,82.137,23.925c13.809,0,26.831-1.304,40.306-3.341C259.213,479.497,250.571,463.091,240.792,449.605z" />
  <path style="fill: #30aa44" d="M243.349,493.478c-33.381,0-60.459-7.923-82.137-23.925c-24.993-18.45-37.436-43.645-47.434-63.889 c-9.067-18.358-15.614-31.629-27.046-29.323c-39.158,7.878-75.619-30.528-33.198-61.114c5.88-4.239,11.801-7.101,17.674-8.748 c-12.139-2.192-25.003,0.614-37.671,9.748c-42.422,30.585-5.96,68.992,33.198,61.114c11.432-2.307,17.978,10.964,27.046,29.323 c9.999,20.244,22.441,45.438,47.434,63.889c21.678,16.002,48.756,23.925,82.137,23.925c7.299,0,14.377-0.372,21.419-1.017 C244.294,493.465,243.826,493.478,243.349,493.478z" />
  <path style="fill: #3bbc56" d="M489.158,283.1c-1.367-34.073-8.594-70.245-14.926-89.836l-0.745,0.017 c-33.932,0.74-38.067,59.508-38.228,62.026c-2.386,50.709-71.272,123.709-75.764,128.246 c-54.817,9.406-90.791,56.957-102.634,106.008c7.525,3.899,25.848,9.941,49.073,9.941c1.882,0,3.812-0.039,5.781-0.121 c30.243-1.261,76.967-13.302,127.82-63.51C479.708,396.211,491.403,339.058,489.158,283.1z" />
  <g>
    <path style="fill: #30aa44" d="M293.633,455.488c13.384-30.608,35.313-57.475,64.586-71.685 c-54.092,9.923-89.607,57.093-101.357,105.759c7.525,3.899,25.848,9.941,49.073,9.941c1.882,0,3.812-0.039,5.781-0.121 c2.379-0.099,4.87-0.274,7.447-0.52c-0.171-0.017-0.343-0.035-0.513-0.053C297.817,496.608,285.24,474.681,293.633,455.488z" />
    <path style="fill: #30aa44" d="M506.652,153.886c-1.258-14.208-13.292-23.77-33.017-26.236 c-30.304-3.786-49.616,14.669-55.945,42.932c-0.635,2.837-2.213,5.383-4.52,7.152c-16.385,12.558-24.909,32.085-24.719,56.805 c0.106,13.8,2.923,25.978,4.689,32.29c0.637,2.275-0.218,4.676-2.111,6.089c-17.253,12.876-28.331,35.189-32.139,64.897 c-3.078,24.003,0.606,45.738,0.606,45.738l0,0l0,0l0,0l0,0c47.618-17.485,79.233-42.018,94.225-74.234 c12.733-27.364,11.602-54.628,10.694-76.536c-0.823-19.851-1.418-34.193,9.391-37.547 C493.729,189.053,508.157,170.89,506.652,153.886z" />
  </g>
  <path style="fill: #239b31" d="M379.657,337.815c3.809-29.708,14.886-52.021,32.139-64.897c1.893-1.413,2.747-3.814,2.111-6.089 c-1.768-6.313-4.583-18.491-4.689-32.29c-0.19-24.72,8.336-44.246,24.719-56.805c2.307-1.769,3.884-4.314,4.52-7.151 c4.996-22.31,18.088-38.497,38.284-42.47c-1.015-0.173-2.048-0.33-3.107-0.462c-30.304-3.786-49.616,14.669-55.945,42.932 c-0.635,2.837-2.213,5.383-4.52,7.151c-16.385,12.559-24.909,32.085-24.719,56.805c0.106,13.8,2.923,25.977,4.689,32.29 c0.637,2.274-0.218,4.676-2.111,6.089c-17.253,12.876-28.331,35.19-32.139,64.897c-3.078,24.003,0.606,45.738,0.606,45.738 c6.933-2.546,13.516-5.246,19.769-8.093C378.455,366.989,377.73,352.848,379.657,337.815z" />
</svg>
